# xmcd
#
# Track frame offsets:
#        150
#        23870
#        47090
#        61425
#        79742
#        108757
#        127055
#        141265
#        181510
#        194212
#        206362
#        220150
#
# Disc length: 3160 seconds
#
# Revision: 0
# Processed by: cddbd v1.5.1PL0 Copyright (c) Steve Scherf et al.
# Submitted via: ExactAudioCopy v0.95a5
#
DISCID=ad0c560c
DTITLE=Johnny Thunders - Saddest Vacation Act.2
DYEAR=1900
DGENRE=
TTITLE0=Louie Louie - Hang On Sloopy
TTITLE1=Society Makes Me Sad
TTITLE2=Too Much Junkie Business - Pills
TTITLE3=Just Another Girl
TTITLE4=So Alone
TTITLE5=Wipe Out
TTITLE6=Personality Crisis
TTITLE7=Gloria
TTITLE8=Born To Lose
TTITLE9=I Wanna Be Loved
TTITLE10=Night Lives
TTITLE11=Children
EXTD=
EXTT0=
EXTT1=
EXTT2=
EXTT3=
EXTT4=
EXTT5=
EXTT6=
EXTT7=
EXTT8=
EXTT9=
EXTT10=
EXTT11=
PLAYORDER=
